<mxfile host="app.diagrams.net" agent="Mozilla/5.0 (X11; Ubuntu; Linux x86_64; rv:138.0) Gecko/20100101 Firefox/138.0" version="27.0.6">
  <diagram id="C5RBs43oDa-KdzZeNtuy" name="Page-1">
    <mxGraphModel dx="1721" dy="934" grid="1" gridSize="10" guides="1" tooltips="1" connect="1" arrows="1" fold="1" page="1" pageScale="1" pageWidth="827" pageHeight="1169" math="0" shadow="0">
      <root>
        <mxCell id="WIyWlLk6GJQsqaUBKTNV-0" />
        <mxCell id="WIyWlLk6GJQsqaUBKTNV-1" parent="WIyWlLk6GJQsqaUBKTNV-0" />
        <mxCell id="hAh9IHp585mUGMxkpmw3-0" value="&amp;lt;&amp;lt;interface&amp;gt;&amp;gt;&amp;nbsp;&amp;nbsp;&amp;nbsp;&amp;nbsp;&amp;nbsp;&amp;nbsp; EvenementObservable&amp;nbsp; " style="swimlane;fontStyle=1;align=center;verticalAlign=top;childLayout=stackLayout;horizontal=1;startSize=50;horizontalStack=0;resizeParent=1;resizeParentMax=0;resizeLast=0;collapsible=1;marginBottom=0;whiteSpace=wrap;html=1;" vertex="1" parent="WIyWlLk6GJQsqaUBKTNV-1">
          <mxGeometry x="210" y="60" width="170" height="120" as="geometry" />
        </mxCell>
        <mxCell id="hAh9IHp585mUGMxkpmw3-2" value="" style="line;strokeWidth=1;fillColor=none;align=left;verticalAlign=middle;spacingTop=-1;spacingLeft=3;spacingRight=3;rotatable=0;labelPosition=right;points=[];portConstraint=eastwest;strokeColor=inherit;" vertex="1" parent="hAh9IHp585mUGMxkpmw3-0">
          <mxGeometry y="50" width="170" height="8" as="geometry" />
        </mxCell>
        <mxCell id="hAh9IHp585mUGMxkpmw3-3" value="&lt;div&gt;+ ajouterObservateur()&lt;/div&gt;&lt;div&gt;+ supprimerObservateur()&lt;/div&gt;&lt;div&gt;+ notifierObservateurs()&lt;/div&gt;" style="text;strokeColor=none;fillColor=none;align=left;verticalAlign=top;spacingLeft=4;spacingRight=4;overflow=hidden;rotatable=0;points=[[0,0.5],[1,0.5]];portConstraint=eastwest;whiteSpace=wrap;html=1;" vertex="1" parent="hAh9IHp585mUGMxkpmw3-0">
          <mxGeometry y="58" width="170" height="62" as="geometry" />
        </mxCell>
        <mxCell id="hAh9IHp585mUGMxkpmw3-7" value="&lt;div&gt;&amp;lt;&amp;lt;abstract&amp;gt;&amp;gt;&amp;nbsp;&amp;nbsp;&amp;nbsp;&amp;nbsp;&lt;/div&gt;&lt;div&gt;Evenement&amp;nbsp;&amp;nbsp;&amp;nbsp; &lt;/div&gt;" style="swimlane;fontStyle=1;align=center;verticalAlign=top;childLayout=stackLayout;horizontal=1;startSize=50;horizontalStack=0;resizeParent=1;resizeParentMax=0;resizeLast=0;collapsible=1;marginBottom=0;whiteSpace=wrap;html=1;" vertex="1" parent="WIyWlLk6GJQsqaUBKTNV-1">
          <mxGeometry x="190" y="260" width="230" height="240" as="geometry" />
        </mxCell>
        <mxCell id="hAh9IHp585mUGMxkpmw3-8" value="- id: String&amp;nbsp;&amp;nbsp;&amp;nbsp;&amp;nbsp;&amp;nbsp; &lt;br&gt;&lt;div&gt;&amp;nbsp;- nom: String&amp;nbsp;&amp;nbsp;&amp;nbsp;&amp;nbsp;&amp;nbsp;&lt;/div&gt;&lt;div&gt;&amp;nbsp;- date: LocalDateTime &lt;/div&gt;&amp;nbsp;- lieu: String&amp;nbsp;&amp;nbsp;&amp;nbsp; &lt;br&gt;&amp;nbsp;- capaciteMax: int&lt;br&gt;&amp;nbsp;- participants: List&amp;lt;Participant&amp;gt; &lt;br&gt;&amp;nbsp;- notificationService: NotificationService " style="text;strokeColor=none;fillColor=none;align=left;verticalAlign=top;spacingLeft=4;spacingRight=4;overflow=hidden;rotatable=0;points=[[0,0.5],[1,0.5]];portConstraint=eastwest;whiteSpace=wrap;html=1;" vertex="1" parent="hAh9IHp585mUGMxkpmw3-7">
          <mxGeometry y="50" width="230" height="120" as="geometry" />
        </mxCell>
        <mxCell id="hAh9IHp585mUGMxkpmw3-9" value="" style="line;strokeWidth=1;fillColor=none;align=left;verticalAlign=middle;spacingTop=-1;spacingLeft=3;spacingRight=3;rotatable=0;labelPosition=right;points=[];portConstraint=eastwest;strokeColor=inherit;" vertex="1" parent="hAh9IHp585mUGMxkpmw3-7">
          <mxGeometry y="170" width="230" height="8" as="geometry" />
        </mxCell>
        <mxCell id="hAh9IHp585mUGMxkpmw3-10" value="+ ajouterParticipant(p: Participant) &lt;br&gt;&lt;div&gt;&amp;nbsp;+ annuler() &lt;br&gt;&lt;/div&gt;&lt;div&gt;&amp;nbsp;+ afficherDetails() &lt;/div&gt;" style="text;strokeColor=none;fillColor=none;align=left;verticalAlign=top;spacingLeft=4;spacingRight=4;overflow=hidden;rotatable=0;points=[[0,0.5],[1,0.5]];portConstraint=eastwest;whiteSpace=wrap;html=1;" vertex="1" parent="hAh9IHp585mUGMxkpmw3-7">
          <mxGeometry y="178" width="230" height="62" as="geometry" />
        </mxCell>
        <mxCell id="hAh9IHp585mUGMxkpmw3-11" value="conference" style="swimlane;fontStyle=1;align=center;verticalAlign=top;childLayout=stackLayout;horizontal=1;startSize=26;horizontalStack=0;resizeParent=1;resizeParentMax=0;resizeLast=0;collapsible=1;marginBottom=0;whiteSpace=wrap;html=1;" vertex="1" parent="WIyWlLk6GJQsqaUBKTNV-1">
          <mxGeometry x="140" y="727" width="160" height="78" as="geometry" />
        </mxCell>
        <mxCell id="hAh9IHp585mUGMxkpmw3-12" value="&lt;div&gt;+ theme: String&lt;/div&gt;&lt;div&gt;+intervennt: String&lt;/div&gt;" style="text;strokeColor=none;fillColor=none;align=left;verticalAlign=top;spacingLeft=4;spacingRight=4;overflow=hidden;rotatable=0;points=[[0,0.5],[1,0.5]];portConstraint=eastwest;whiteSpace=wrap;html=1;" vertex="1" parent="hAh9IHp585mUGMxkpmw3-11">
          <mxGeometry y="26" width="160" height="44" as="geometry" />
        </mxCell>
        <mxCell id="hAh9IHp585mUGMxkpmw3-13" value="" style="line;strokeWidth=1;fillColor=none;align=left;verticalAlign=middle;spacingTop=-1;spacingLeft=3;spacingRight=3;rotatable=0;labelPosition=right;points=[];portConstraint=eastwest;strokeColor=inherit;" vertex="1" parent="hAh9IHp585mUGMxkpmw3-11">
          <mxGeometry y="70" width="160" height="8" as="geometry" />
        </mxCell>
        <mxCell id="hAh9IHp585mUGMxkpmw3-15" value="Classname" style="swimlane;fontStyle=1;align=center;verticalAlign=top;childLayout=stackLayout;horizontal=1;startSize=26;horizontalStack=0;resizeParent=1;resizeParentMax=0;resizeLast=0;collapsible=1;marginBottom=0;whiteSpace=wrap;html=1;" vertex="1" parent="WIyWlLk6GJQsqaUBKTNV-1">
          <mxGeometry x="350" y="590" width="160" height="78" as="geometry" />
        </mxCell>
        <mxCell id="hAh9IHp585mUGMxkpmw3-16" value="&lt;div&gt;+ artiste:String&lt;/div&gt;&lt;div&gt;+genre musical: String&lt;/div&gt;" style="text;strokeColor=none;fillColor=none;align=left;verticalAlign=top;spacingLeft=4;spacingRight=4;overflow=hidden;rotatable=0;points=[[0,0.5],[1,0.5]];portConstraint=eastwest;whiteSpace=wrap;html=1;" vertex="1" parent="hAh9IHp585mUGMxkpmw3-15">
          <mxGeometry y="26" width="160" height="44" as="geometry" />
        </mxCell>
        <mxCell id="hAh9IHp585mUGMxkpmw3-17" value="" style="line;strokeWidth=1;fillColor=none;align=left;verticalAlign=middle;spacingTop=-1;spacingLeft=3;spacingRight=3;rotatable=0;labelPosition=right;points=[];portConstraint=eastwest;strokeColor=inherit;" vertex="1" parent="hAh9IHp585mUGMxkpmw3-15">
          <mxGeometry y="70" width="160" height="8" as="geometry" />
        </mxCell>
        <mxCell id="hAh9IHp585mUGMxkpmw3-19" value="" style="endArrow=block;dashed=1;endFill=0;endSize=12;html=1;rounded=0;exitX=0.5;exitY=0;exitDx=0;exitDy=0;" edge="1" parent="WIyWlLk6GJQsqaUBKTNV-1" source="hAh9IHp585mUGMxkpmw3-7" target="hAh9IHp585mUGMxkpmw3-0">
          <mxGeometry width="160" relative="1" as="geometry">
            <mxPoint x="310" y="640" as="sourcePoint" />
            <mxPoint x="470" y="640" as="targetPoint" />
          </mxGeometry>
        </mxCell>
        <mxCell id="hAh9IHp585mUGMxkpmw3-20" value="Extends" style="endArrow=block;endSize=16;endFill=0;html=1;rounded=0;exitX=0.5;exitY=0;exitDx=0;exitDy=0;" edge="1" parent="WIyWlLk6GJQsqaUBKTNV-1" source="hAh9IHp585mUGMxkpmw3-11" target="hAh9IHp585mUGMxkpmw3-7">
          <mxGeometry width="160" relative="1" as="geometry">
            <mxPoint x="270" y="440" as="sourcePoint" />
            <mxPoint x="430" y="440" as="targetPoint" />
          </mxGeometry>
        </mxCell>
        <mxCell id="hAh9IHp585mUGMxkpmw3-21" value="Extends" style="endArrow=block;endSize=16;endFill=0;html=1;rounded=0;exitX=0.172;exitY=-0.038;exitDx=0;exitDy=0;exitPerimeter=0;" edge="1" parent="WIyWlLk6GJQsqaUBKTNV-1" source="hAh9IHp585mUGMxkpmw3-15" target="hAh9IHp585mUGMxkpmw3-7">
          <mxGeometry width="160" relative="1" as="geometry">
            <mxPoint x="270" y="440" as="sourcePoint" />
            <mxPoint x="430" y="440" as="targetPoint" />
          </mxGeometry>
        </mxCell>
        <mxCell id="hAh9IHp585mUGMxkpmw3-22" value="&amp;lt;&amp;lt;interface&amp;gt;&amp;gt;&amp;nbsp;&amp;nbsp;&amp;nbsp;&amp;nbsp;&amp;nbsp;&amp;nbsp; ParticipantObserver&amp;nbsp; " style="swimlane;fontStyle=1;align=center;verticalAlign=top;childLayout=stackLayout;horizontal=1;startSize=50;horizontalStack=0;resizeParent=1;resizeParentMax=0;resizeLast=0;collapsible=1;marginBottom=0;whiteSpace=wrap;html=1;" vertex="1" parent="WIyWlLk6GJQsqaUBKTNV-1">
          <mxGeometry x="1320" y="410" width="170" height="100" as="geometry" />
        </mxCell>
        <mxCell id="hAh9IHp585mUGMxkpmw3-23" value="" style="line;strokeWidth=1;fillColor=none;align=left;verticalAlign=middle;spacingTop=-1;spacingLeft=3;spacingRight=3;rotatable=0;labelPosition=right;points=[];portConstraint=eastwest;strokeColor=inherit;" vertex="1" parent="hAh9IHp585mUGMxkpmw3-22">
          <mxGeometry y="50" width="170" height="8" as="geometry" />
        </mxCell>
        <mxCell id="hAh9IHp585mUGMxkpmw3-24" value="+recevoirNotification()" style="text;strokeColor=none;fillColor=none;align=left;verticalAlign=top;spacingLeft=4;spacingRight=4;overflow=hidden;rotatable=0;points=[[0,0.5],[1,0.5]];portConstraint=eastwest;whiteSpace=wrap;html=1;" vertex="1" parent="hAh9IHp585mUGMxkpmw3-22">
          <mxGeometry y="58" width="170" height="42" as="geometry" />
        </mxCell>
        <mxCell id="hAh9IHp585mUGMxkpmw3-25" value="&lt;div&gt;Participant &amp;nbsp;&amp;nbsp; &lt;/div&gt;" style="swimlane;fontStyle=1;align=center;verticalAlign=top;childLayout=stackLayout;horizontal=1;startSize=50;horizontalStack=0;resizeParent=1;resizeParentMax=0;resizeLast=0;collapsible=1;marginBottom=0;whiteSpace=wrap;html=1;" vertex="1" parent="WIyWlLk6GJQsqaUBKTNV-1">
          <mxGeometry x="1320" y="660" width="150" height="150" as="geometry" />
        </mxCell>
        <mxCell id="hAh9IHp585mUGMxkpmw3-26" value="&amp;nbsp;- id: String&amp;nbsp;&amp;nbsp;&amp;nbsp;&amp;nbsp;&amp;nbsp;&amp;nbsp;&amp;nbsp;&amp;nbsp;&amp;nbsp;&amp;nbsp; &lt;br&gt;&amp;nbsp;- nom: String&amp;nbsp;&amp;nbsp;&amp;nbsp;&amp;nbsp;&amp;nbsp;&amp;nbsp;&amp;nbsp;&amp;nbsp; &lt;br&gt;&amp;nbsp;- email: String" style="text;strokeColor=none;fillColor=none;align=left;verticalAlign=top;spacingLeft=4;spacingRight=4;overflow=hidden;rotatable=0;points=[[0,0.5],[1,0.5]];portConstraint=eastwest;whiteSpace=wrap;html=1;" vertex="1" parent="hAh9IHp585mUGMxkpmw3-25">
          <mxGeometry y="50" width="150" height="60" as="geometry" />
        </mxCell>
        <mxCell id="hAh9IHp585mUGMxkpmw3-27" value="" style="line;strokeWidth=1;fillColor=none;align=left;verticalAlign=middle;spacingTop=-1;spacingLeft=3;spacingRight=3;rotatable=0;labelPosition=right;points=[];portConstraint=eastwest;strokeColor=inherit;" vertex="1" parent="hAh9IHp585mUGMxkpmw3-25">
          <mxGeometry y="110" width="150" height="8" as="geometry" />
        </mxCell>
        <mxCell id="hAh9IHp585mUGMxkpmw3-28" value="+ recevoirNotification()" style="text;strokeColor=none;fillColor=none;align=left;verticalAlign=top;spacingLeft=4;spacingRight=4;overflow=hidden;rotatable=0;points=[[0,0.5],[1,0.5]];portConstraint=eastwest;whiteSpace=wrap;html=1;" vertex="1" parent="hAh9IHp585mUGMxkpmw3-25">
          <mxGeometry y="118" width="150" height="32" as="geometry" />
        </mxCell>
        <mxCell id="hAh9IHp585mUGMxkpmw3-29" value="" style="endArrow=block;dashed=1;endFill=0;endSize=12;html=1;rounded=0;exitX=0.5;exitY=0;exitDx=0;exitDy=0;" edge="1" source="hAh9IHp585mUGMxkpmw3-25" target="hAh9IHp585mUGMxkpmw3-22" parent="WIyWlLk6GJQsqaUBKTNV-1">
          <mxGeometry width="160" relative="1" as="geometry">
            <mxPoint x="1420" y="990" as="sourcePoint" />
            <mxPoint x="1580" y="990" as="targetPoint" />
          </mxGeometry>
        </mxCell>
        <mxCell id="hAh9IHp585mUGMxkpmw3-30" value="&lt;div&gt;&amp;lt;&amp;lt;interface&amp;gt;&amp;gt;&amp;nbsp;&lt;/div&gt;&lt;div&gt;NotificationService&amp;nbsp; &lt;/div&gt;" style="swimlane;fontStyle=1;align=center;verticalAlign=top;childLayout=stackLayout;horizontal=1;startSize=50;horizontalStack=0;resizeParent=1;resizeParentMax=0;resizeLast=0;collapsible=1;marginBottom=0;whiteSpace=wrap;html=1;" vertex="1" parent="WIyWlLk6GJQsqaUBKTNV-1">
          <mxGeometry x="833" y="440" width="170" height="120" as="geometry" />
        </mxCell>
        <mxCell id="hAh9IHp585mUGMxkpmw3-31" value="" style="line;strokeWidth=1;fillColor=none;align=left;verticalAlign=middle;spacingTop=-1;spacingLeft=3;spacingRight=3;rotatable=0;labelPosition=right;points=[];portConstraint=eastwest;strokeColor=inherit;" vertex="1" parent="hAh9IHp585mUGMxkpmw3-30">
          <mxGeometry y="50" width="170" height="8" as="geometry" />
        </mxCell>
        <mxCell id="hAh9IHp585mUGMxkpmw3-32" value="+ envoyerNotification()&amp;nbsp; &lt;br&gt;+ envoyerNotificationAsync()" style="text;strokeColor=none;fillColor=none;align=left;verticalAlign=top;spacingLeft=4;spacingRight=4;overflow=hidden;rotatable=0;points=[[0,0.5],[1,0.5]];portConstraint=eastwest;whiteSpace=wrap;html=1;" vertex="1" parent="hAh9IHp585mUGMxkpmw3-30">
          <mxGeometry y="58" width="170" height="62" as="geometry" />
        </mxCell>
        <mxCell id="hAh9IHp585mUGMxkpmw3-33" value="NotificationServiceImpl" style="swimlane;fontStyle=1;align=center;verticalAlign=top;childLayout=stackLayout;horizontal=1;startSize=30;horizontalStack=0;resizeParent=1;resizeParentMax=0;resizeLast=0;collapsible=1;marginBottom=0;whiteSpace=wrap;html=1;" vertex="1" parent="WIyWlLk6GJQsqaUBKTNV-1">
          <mxGeometry x="770" y="810" width="250" height="140" as="geometry" />
        </mxCell>
        <mxCell id="hAh9IHp585mUGMxkpmw3-34" value="- observateurs: List&amp;lt;ParticipantObserver&amp;gt;" style="text;strokeColor=none;fillColor=none;align=left;verticalAlign=top;spacingLeft=4;spacingRight=4;overflow=hidden;rotatable=0;points=[[0,0.5],[1,0.5]];portConstraint=eastwest;whiteSpace=wrap;html=1;" vertex="1" parent="hAh9IHp585mUGMxkpmw3-33">
          <mxGeometry y="30" width="250" height="40" as="geometry" />
        </mxCell>
        <mxCell id="hAh9IHp585mUGMxkpmw3-35" value="" style="line;strokeWidth=1;fillColor=none;align=left;verticalAlign=middle;spacingTop=-1;spacingLeft=3;spacingRight=3;rotatable=0;labelPosition=right;points=[];portConstraint=eastwest;strokeColor=inherit;" vertex="1" parent="hAh9IHp585mUGMxkpmw3-33">
          <mxGeometry y="70" width="250" height="8" as="geometry" />
        </mxCell>
        <mxCell id="hAh9IHp585mUGMxkpmw3-36" value="+ ajouterObservateur()&amp;nbsp;&amp;nbsp;&amp;nbsp;&amp;nbsp;&amp;nbsp;&amp;nbsp; &lt;br&gt;&amp;nbsp;+ supprimerObservateur()&amp;nbsp;&amp;nbsp;&amp;nbsp;&amp;nbsp; &lt;br&gt;&amp;nbsp;+ envoyerNotification()&amp;nbsp;&amp;nbsp;&amp;nbsp;&amp;nbsp;&amp;nbsp; &lt;br&gt;&amp;nbsp;+ envoyerNotificationAsync()" style="text;strokeColor=none;fillColor=none;align=left;verticalAlign=top;spacingLeft=4;spacingRight=4;overflow=hidden;rotatable=0;points=[[0,0.5],[1,0.5]];portConstraint=eastwest;whiteSpace=wrap;html=1;" vertex="1" parent="hAh9IHp585mUGMxkpmw3-33">
          <mxGeometry y="78" width="250" height="62" as="geometry" />
        </mxCell>
        <mxCell id="hAh9IHp585mUGMxkpmw3-37" value="" style="endArrow=block;dashed=1;endFill=0;endSize=12;html=1;rounded=0;exitX=0.5;exitY=0;exitDx=0;exitDy=0;" edge="1" source="hAh9IHp585mUGMxkpmw3-33" target="hAh9IHp585mUGMxkpmw3-30" parent="WIyWlLk6GJQsqaUBKTNV-1">
          <mxGeometry width="160" relative="1" as="geometry">
            <mxPoint x="923" y="1020" as="sourcePoint" />
            <mxPoint x="1083" y="1020" as="targetPoint" />
          </mxGeometry>
        </mxCell>
        <mxCell id="hAh9IHp585mUGMxkpmw3-38" value="GestionEvenement" style="swimlane;fontStyle=1;align=center;verticalAlign=top;childLayout=stackLayout;horizontal=1;startSize=26;horizontalStack=0;resizeParent=1;resizeParentMax=0;resizeLast=0;collapsible=1;marginBottom=0;whiteSpace=wrap;html=1;" vertex="1" parent="WIyWlLk6GJQsqaUBKTNV-1">
          <mxGeometry x="590" y="170" width="160" height="160" as="geometry" />
        </mxCell>
        <mxCell id="hAh9IHp585mUGMxkpmw3-39" value="- evenements: Map&amp;lt;String, Evenement&amp;gt;" style="text;strokeColor=none;fillColor=none;align=left;verticalAlign=top;spacingLeft=4;spacingRight=4;overflow=hidden;rotatable=0;points=[[0,0.5],[1,0.5]];portConstraint=eastwest;whiteSpace=wrap;html=1;" vertex="1" parent="hAh9IHp585mUGMxkpmw3-38">
          <mxGeometry y="26" width="160" height="34" as="geometry" />
        </mxCell>
        <mxCell id="hAh9IHp585mUGMxkpmw3-40" value="" style="line;strokeWidth=1;fillColor=none;align=left;verticalAlign=middle;spacingTop=-1;spacingLeft=3;spacingRight=3;rotatable=0;labelPosition=right;points=[];portConstraint=eastwest;strokeColor=inherit;" vertex="1" parent="hAh9IHp585mUGMxkpmw3-38">
          <mxGeometry y="60" width="160" height="8" as="geometry" />
        </mxCell>
        <mxCell id="hAh9IHp585mUGMxkpmw3-41" value="+ ajouterEvenement()&amp;nbsp;&amp;nbsp;&amp;nbsp;&amp;nbsp; &lt;br&gt;+ supprimerEvenement()&amp;nbsp;&amp;nbsp;&amp;nbsp; + rechercherEvenement()&amp;nbsp;&amp;nbsp; + sauvegarder()&amp;nbsp;&amp;nbsp;&amp;nbsp;&amp;nbsp;&amp;nbsp;&amp;nbsp;&amp;nbsp;&amp;nbsp;&amp;nbsp; &lt;br&gt;+ charger() " style="text;strokeColor=none;fillColor=none;align=left;verticalAlign=top;spacingLeft=4;spacingRight=4;overflow=hidden;rotatable=0;points=[[0,0.5],[1,0.5]];portConstraint=eastwest;whiteSpace=wrap;html=1;" vertex="1" parent="hAh9IHp585mUGMxkpmw3-38">
          <mxGeometry y="68" width="160" height="92" as="geometry" />
        </mxCell>
        <mxCell id="hAh9IHp585mUGMxkpmw3-43" value="" style="endArrow=none;html=1;rounded=0;exitX=1;exitY=0.25;exitDx=0;exitDy=0;" edge="1" parent="WIyWlLk6GJQsqaUBKTNV-1" source="hAh9IHp585mUGMxkpmw3-15" target="hAh9IHp585mUGMxkpmw3-33">
          <mxGeometry width="50" height="50" relative="1" as="geometry">
            <mxPoint x="680" y="710" as="sourcePoint" />
            <mxPoint x="840" y="580" as="targetPoint" />
          </mxGeometry>
        </mxCell>
        <mxCell id="hAh9IHp585mUGMxkpmw3-45" value="" style="endArrow=none;html=1;rounded=0;exitX=1;exitY=0.25;exitDx=0;exitDy=0;" edge="1" parent="WIyWlLk6GJQsqaUBKTNV-1" source="hAh9IHp585mUGMxkpmw3-11" target="hAh9IHp585mUGMxkpmw3-33">
          <mxGeometry width="50" height="50" relative="1" as="geometry">
            <mxPoint x="1230" y="710" as="sourcePoint" />
            <mxPoint x="1280" y="660" as="targetPoint" />
          </mxGeometry>
        </mxCell>
        <mxCell id="hAh9IHp585mUGMxkpmw3-46" value="" style="endArrow=none;html=1;rounded=0;entryX=0;entryY=0.5;entryDx=0;entryDy=0;exitX=0.972;exitY=0.143;exitDx=0;exitDy=0;exitPerimeter=0;" edge="1" parent="WIyWlLk6GJQsqaUBKTNV-1" source="hAh9IHp585mUGMxkpmw3-33" target="hAh9IHp585mUGMxkpmw3-26">
          <mxGeometry width="50" height="50" relative="1" as="geometry">
            <mxPoint x="900" y="710" as="sourcePoint" />
            <mxPoint x="950" y="660" as="targetPoint" />
          </mxGeometry>
        </mxCell>
        <mxCell id="hAh9IHp585mUGMxkpmw3-47" value="" style="endArrow=none;html=1;rounded=0;exitX=0.989;exitY=0.104;exitDx=0;exitDy=0;exitPerimeter=0;entryX=0;entryY=0.5;entryDx=0;entryDy=0;" edge="1" parent="WIyWlLk6GJQsqaUBKTNV-1" source="hAh9IHp585mUGMxkpmw3-7" target="hAh9IHp585mUGMxkpmw3-39">
          <mxGeometry width="50" height="50" relative="1" as="geometry">
            <mxPoint x="900" y="710" as="sourcePoint" />
            <mxPoint x="950" y="660" as="targetPoint" />
          </mxGeometry>
        </mxCell>
        <mxCell id="hAh9IHp585mUGMxkpmw3-48" value="&lt;div&gt;singleton&lt;/div&gt;&lt;div&gt;&lt;br&gt;&lt;/div&gt;" style="text;html=1;align=center;verticalAlign=middle;resizable=0;points=[];autosize=1;strokeColor=none;fillColor=none;" vertex="1" parent="WIyWlLk6GJQsqaUBKTNV-1">
          <mxGeometry x="470" y="220" width="70" height="40" as="geometry" />
        </mxCell>
      </root>
    </mxGraphModel>
  </diagram>
</mxfile>
